<svg width="414" height="414" viewBox="0 0 414 414" fill="none" xmlns="http://www.w3.org/2000/svg">
<path d="M254 151.25L266.305 119.389C267.42 116.502 269.189 113.914 271.474 111.827L312.693 74.1777C322.267 65.4333 321.117 50.0308 310.352 42.8046L266.527 13.3877C261.456 9.98426 255.109 9.08384 249.292 10.9429L210 23.5L166.065 34.0061C164.692 34.3344 163.358 34.8073 162.084 35.4166L86.7603 71.4588C77.7331 75.7782 73.288 86.1049 76.3556 95.6305L85.3305 123.5M254 151.25H170M254 151.25L308.071 183.831C310.976 185.582 313.388 188.042 315.08 190.981L365.227 278.053C366.723 280.651 367.616 283.552 367.84 286.542L372.315 346.352C372.75 352.16 370.632 357.868 366.513 361.987L349.332 379.168C345.303 383.197 339.748 385.316 334.06 384.994L319.5 384.171M170 151.25L102.031 139.993C94.6429 138.769 88.5574 133.52 86.2619 126.392L85.3305 123.5M170 151.25L250.085 186.185C260.045 190.53 264.714 202.032 260.6 212.09L250 238M250 238L138.39 251.375C132.446 252.087 127.133 255.425 123.912 260.472L118.5 268.95M250 238L229.551 265.5M229.551 265.5L167.59 281.096C165.217 281.694 162.754 281.851 160.325 281.559L122.304 276.997C118.459 276.535 116.416 272.215 118.5 268.95V268.95M229.551 265.5L201 296L168.637 322.24C165.612 324.693 163.368 327.976 162.183 331.687L156.361 349.902C152.381 362.357 161.227 375.22 174.283 375.958L209 377.922M101.5 112C100.7 112.4 90.387 119.833 85.3305 123.5M123.5 260.5H148M118.5 268.95L146 271.5M209 377.922V383.557C209 386.151 207.193 388.394 204.659 388.946V388.946C198.504 390.288 199.045 399.236 205.316 399.827L228.932 402.052C234.333 402.56 239 398.312 239 392.888V379.618M209 377.922L239 379.618M239 379.618L287 382.333M287 382.333V387.999C287 390.405 285.505 392.557 283.251 393.398V393.398C277.406 395.578 278.711 404.197 284.94 404.549L308.244 405.865C314.355 406.21 319.5 401.347 319.5 395.226V384.171M287 382.333L319.5 384.171M159.461 89.0764V89.0764C161.324 91.4046 160.678 94.8445 158.097 96.3383L157.126 96.9008C155.037 98.1099 152.38 97.6213 150.858 95.7483V95.7483C148.878 93.3115 149.664 89.668 152.472 88.2639L153.476 87.7619C155.532 86.7342 158.026 87.282 159.461 89.0764ZM173.542 74.0289L177.934 79.665C185.714 89.6503 182.379 104.261 171.035 109.88L155.754 117.449C146.532 122.017 135.349 118.841 129.904 110.107L126.607 104.817C120.562 95.12 123.856 82.3382 133.835 76.771L148.022 68.8562C156.64 64.0483 167.476 66.2448 173.542 74.0289Z" stroke="black" stroke-width="3"/>
</svg>
