<svg width="419" height="403" viewBox="0 0 419 403" fill="none" xmlns="http://www.w3.org/2000/svg">
<g clip-path="url(#clip0_1777_4207)">
<path d="M36.5 398.5L52.6978 17.5L71.1044 398.5L90.2473 17.5L103.5 398.5" stroke="#3700FF" stroke-width="2"/>
<path d="M-29.5 398.5L-13.544 17.5L4.58791 398.5L23.4451 17.5L36.5 398.5" stroke="#3700FF" stroke-width="2"/>
<path d="M103.5 398.5L119.456 17.5L137.588 398.5L156.445 17.5L169.5 398.5" stroke="#3700FF" stroke-width="2"/>
<path d="M169.5 399.5L185.456 18.5L203.588 399.5L222.445 18.5L235.5 399.5" stroke="#3700FF" stroke-width="2"/>
<path d="M235.5 400.5L251.456 19.5L269.588 400.5L288.445 19.5L301.5 400.5" stroke="#3700FF" stroke-width="2"/>
<path d="M301.5 401.5L317.698 19.5L336.104 401.5L355.247 19.5L368.5 401.5" stroke="#3700FF" stroke-width="2"/>
<path d="M369 402L384.956 21L403.088 402L421.945 21L435 402" stroke="#3700FF" stroke-width="2"/>
</g>
<defs>
<clipPath id="clip0_1777_4207">
<rect width="419" height="403" fill="white"/>
</clipPath>
</defs>
</svg>
